<?xml version="1.0" encoding="UTF-8"?>
<svg version="1.1" xmlns="http://www.w3.org/2000/svg" width="268" height="52">
<path d="M0 0 C2.56439724 1.32056251 4.92841281 2.88052542 7.3125 4.5 C8.26092773 5.12455078 8.26092773 5.12455078 9.22851562 5.76171875 C13.76971726 8.76971726 13.76971726 8.76971726 15 10 C15.47740198 14.02901584 15.55830253 18.07227942 15.6875 22.125 C15.76677734 23.25421875 15.84605469 24.3834375 15.92773438 25.546875 C16.13533614 33.79301016 16.13533614 33.79301016 12.85693359 37.27832031 C10.30813988 39.06653792 7.75671244 40.55845304 5 42 C4.01181274 42.66056396 4.01181274 42.66056396 3.00366211 43.33447266 C0.31818855 45.11930501 -1.49355554 46.02305295 -4.74609375 45.875 C-8.84847703 44.77183811 -11.82577567 42.86847941 -15.3125 40.5 C-16.26092773 39.87544922 -16.26092773 39.87544922 -17.22851562 39.23828125 C-21.76971726 36.23028274 -21.76971726 36.23028274 -23 35 C-23.47740198 30.97098416 -23.55830253 26.92772058 -23.6875 22.875 C-23.76677734 21.74578125 -23.84605469 20.6165625 -23.92773438 19.453125 C-24.13533614 11.20698984 -24.13533614 11.20698984 -20.85693359 7.72167969 C-18.30813988 5.93346208 -15.75671244 4.44154696 -13 3 C-12.3412085 2.55962402 -11.68241699 2.11924805 -11.00366211 1.66552734 C-6.88732529 -1.07029223 -4.6956881 -1.26270605 0 0 Z M-12.8046875 13.60546875 C-15.56612266 16.61749678 -15.96036654 18.44980304 -16.25 22.5 C-15.96618699 26.60109792 -15.57961979 28.38740184 -12.734375 31.39453125 C-10.22533503 33.15444357 -7.74889397 34.65009671 -5 36 C-4.19071295 33.17068148 -3.88851401 30.68915923 -3.9375 27.75 C-3.958125 26.5125 -3.97875 25.275 -4 24 C-3.67 27.63 -3.34 31.26 -3 35 C1.94463635 33.66436384 1.94463635 33.66436384 3 31 C3.66 31 4.32 31 5 31 C5 26.38 5 21.76 5 17 C5.66 16.67 6.32 16.34 7 16 C5.3790787 14.82767315 3.75313167 13.6622923 2.125 12.5 C0.76761719 11.52546875 0.76761719 11.52546875 -0.6171875 10.53125 C-5.36381043 7.48096116 -8.65323951 10.63409708 -12.8046875 13.60546875 Z " fill="#333E51" transform="translate(217,6)"/>
<path d="M0 0 C4.20609146 2.46594136 6.80162558 5.81885832 8.09765625 10.5625 C8.29681641 11.4596875 8.29681641 11.4596875 8.5 12.375 C5.14593753 13.02148914 1.92116102 13.5211572 -1.5 13.375 C-3.75 11 -3.75 11 -5.5 8.375 C-9.47550118 7.19080816 -12.51333385 7.31970602 -16.5 8.375 C-16.17 10.025 -15.84 11.675 -15.5 13.375 C-14.25863281 13.75011719 -13.01726563 14.12523437 -11.73828125 14.51171875 C-10.09609858 15.0278333 -8.45418539 15.54480584 -6.8125 16.0625 C-5.99587891 16.30677734 -5.17925781 16.55105469 -4.33789062 16.80273438 C0.77687314 18.43863048 3.99860178 20.10011736 7.5 24.375 C9.11174311 27.59848622 8.94994005 30.87981353 8.5 34.375 C6.34203791 39.05058453 3.60200286 41.62502397 -1.02734375 43.67578125 C-6.87739066 45.33005992 -13.29709722 45.63720312 -19.0078125 43.38671875 C-22.47725867 41.31913367 -25.62254225 39.0194768 -27.5 35.375 C-28.1875 32.125 -28.1875 32.125 -28.5 29.375 C-25.2 29.045 -21.9 28.715 -18.5 28.375 C-18.0875 29.15875 -17.675 29.9425 -17.25 30.75 C-15.36805543 33.57291685 -14.73509736 34.50064936 -11.5 35.375 C-8.77312149 35.22844991 -6.20326631 34.82554438 -3.5 34.375 C-2.84 32.395 -2.18 30.415 -1.5 28.375 C-2.17804687 28.20484375 -2.85609375 28.0346875 -3.5546875 27.859375 C-19.6751141 23.66181239 -19.6751141 23.66181239 -25.125 19.25 C-27.18793667 14.93658696 -27.36975682 11.06118975 -26.5 6.375 C-24.82295112 3.01402909 -22.59292031 0.91038326 -19.1875 -0.7578125 C-13.04169145 -2.7409077 -5.9242755 -2.66759122 0 0 Z " fill="#333E51" transform="translate(28.5,1.625)"/>
<path d="M0 0 C2.97 0 5.94 0 9 0 C9 3.63 9 7.26 9 11 C9.66 10.67 10.32 10.34 11 10 C16.60873207 9.37452897 21.74546485 9.37665109 26.52734375 12.62109375 C30.94626881 16.75870793 32.24531768 21.57658224 32.5 27.5 C32.21786657 34.28060673 30.27973892 38.77586446 25.4375 43.5 C19.85227999 45.93718691 13.77793782 45.92597927 8 44 C5.36 44 2.72 44 0 44 C0 29.48 0 14.96 0 0 Z M9.625 19.9375 C7.4323717 24.06976102 7.18730423 27.41407385 8 32 C9.41670711 35.14849606 9.41670711 35.14849606 12 37 C15.55803554 37.66713166 17.24574008 37.43667679 20.375 35.625 C22.89850984 31.54856102 22.73811478 27.66217396 22 23 C20.60308883 19.79131449 20.60308883 19.79131449 18 18 C14.12216601 17.19211792 12.70510441 17.42478324 9.625 19.9375 Z " fill="#333E51" transform="translate(156,1)"/>
<path d="M0 0 C2.97 0 5.94 0 9 0 C9 14.52 9 29.04 9 44 C6.03 44 3.06 44 0 44 C-0.99 44.495 -0.99 44.495 -2 45 C-7.28305214 45.52657873 -11.66862857 45.64191122 -16.5 43.3125 C-20.72024977 39.40876896 -22.65753579 35.56294496 -23.203125 29.88671875 C-23.34762451 23.10728339 -22.06339702 18.37290657 -17.5 13.125 C-13.98387566 10.13629431 -11.40252007 9.86184825 -6.9375 9.875 C-6.05964844 9.87242188 -5.18179688 9.86984375 -4.27734375 9.8671875 C-2 10 -2 10 0 11 C0 7.37 0 3.74 0 0 Z M-11.375 19.9375 C-13.5676283 24.06976102 -13.81269577 27.41407385 -13 32 C-11.58329289 35.14849606 -11.58329289 35.14849606 -9 37 C-5.95720628 37.66680368 -5.95720628 37.66680368 -3 37 C-0.96332385 35.45493534 -0.13926922 34.27853844 1 32 C1.19758231 29.92435324 1.19758231 29.92435324 1.1875 27.625 C1.20876953 26.46871094 1.20876953 26.46871094 1.23046875 25.2890625 C0.97404645 22.7422241 0.35625154 21.16048491 -1 19 C-4.92533672 17.03733164 -7.97471765 17.16358545 -11.375 19.9375 Z " fill="#333E51" transform="translate(139,1)"/>
<path d="M0 0 C1.54300781 -0.03867188 1.54300781 -0.03867188 3.1171875 -0.078125 C7.34789412 0.38340663 9.84309225 1.89782699 12.75073242 4.96484375 C14.56253736 7.97754481 14.46750531 10.04629134 14.41796875 13.546875 C14.40830078 14.75214844 14.39863281 15.95742188 14.38867188 17.19921875 C14.36353516 18.45347656 14.33839844 19.70773438 14.3125 21 C14.29219727 22.90458984 14.29219727 22.90458984 14.27148438 24.84765625 C14.2361324 27.98219844 14.18678248 31.11588545 14.125 34.25 C10.45833333 34.25 6.79166667 34.25 3.125 34.25 C2.135 34.745 2.135 34.745 1.125 35.25 C-4.05042953 35.75837553 -8.42970468 36.08827129 -13 33.4375 C-15.42225877 30.61153144 -15.83317753 28.61943186 -16.25 24.9375 C-15.87937875 21.29305769 -15.2814274 19.24640879 -12.76953125 16.5390625 C-7.67190838 13.07057684 -0.90669271 12.25 5.125 12.25 C4.08931405 10.54264699 4.08931405 10.54264699 2.125 9.25 C-1.48962786 9.32578955 -1.48962786 9.32578955 -4.875 10.25 C-5.205 10.91 -5.535 11.57 -5.875 12.25 C-10.33 11.26 -10.33 11.26 -14.875 10.25 C-13.56454637 6.31863911 -12.04291954 3.93793173 -8.875 1.25 C-5.71490467 0.19663489 -3.3196864 0.04967112 0 0 Z M-6.875 23.25 C-6.37743908 26.00641416 -6.37743908 26.00641416 -4.875 28.25 C0.08809593 28.0445686 0.08809593 28.0445686 4.0625 25.375 C5.3486068 23.19875678 5.3486068 23.19875678 5.125 20.25 C0.24835991 19.90166856 -2.64550005 20.83314288 -6.875 23.25 Z " fill="#333E51" transform="translate(57.875,10.75)"/>
<path d="M0 0 C3.58171981 2.04669703 5.65990754 4.09139698 7 8 C8.02256473 13.67928037 8.11944895 19.17689495 8.0625 24.9375 C8.05798828 25.81212891 8.05347656 26.68675781 8.04882812 27.58789062 C8.03714834 29.72529047 8.01921689 31.86265463 8 34 C4.7 34 1.4 34 -2 34 C-2.02578125 32.53046875 -2.0515625 31.0609375 -2.078125 29.546875 C-2.1344062 27.61455364 -2.19175354 25.68226312 -2.25 23.75 C-2.26417969 22.78191406 -2.27835938 21.81382813 -2.29296875 20.81640625 C-2.41837309 15.2138513 -2.41837309 15.2138513 -4.8828125 10.32421875 C-6.95494437 8.75802996 -6.95494437 8.75802996 -9.625 9.0625 C-12.32289761 9.86655546 -12.32289761 9.86655546 -14 13 C-14.36576054 15.31923274 -14.36576054 15.31923274 -14.4140625 17.88671875 C-14.47207031 19.2934082 -14.47207031 19.2934082 -14.53125 20.72851562 C-14.5621875 21.70498047 -14.593125 22.68144531 -14.625 23.6875 C-14.68300781 25.16959961 -14.68300781 25.16959961 -14.7421875 26.68164062 C-14.83645399 29.1207861 -14.9193159 31.56036747 -15 34 C-17.97 34 -20.94 34 -24 34 C-24 23.11 -24 12.22 -24 1 C-20.66666667 1 -17.33333333 1 -14 1 C-9.37939044 -0.54020319 -4.82536624 -0.51574193 0 0 Z " fill="#333E51" transform="translate(103,11)"/>
<path d="M0 0 C4.0555478 -0.34433896 7.95686082 -0.53765149 12 0 C14.56834049 2.68508324 16 4.22212653 16 8 C18.02939486 6.04058428 19.81901712 4.30016672 21.28125 1.875 C23 0 23 0 25.69921875 -0.390625 C27.17841797 -0.32101562 27.17841797 -0.32101562 28.6875 -0.25 C29.68136719 -0.21390625 30.67523438 -0.1778125 31.69921875 -0.140625 C32.45847656 -0.09421875 33.21773438 -0.0478125 34 0 C32.89789095 1.75129657 31.79322568 3.50098464 30.6875 5.25 C30.07261719 6.22453125 29.45773437 7.1990625 28.82421875 8.203125 C27 11 27 11 25.20703125 13.109375 C23.83009546 14.88358564 23.83009546 14.88358564 24.02734375 16.83203125 C25.47381131 20.05608545 27.50119325 22.83702528 29.5625 25.6875 C34 31.8892261 34 31.8892261 34 33 C30.22291525 33.48389698 26.75726104 33.70094307 23 33 C20.32057455 30.69032513 18.64638565 28.11215514 17 25 C16.69449219 25.5775 16.38898438 26.155 16.07421875 26.75 C14.54600788 29.22957594 13.21338444 31.09205425 11 33 C7.24273896 33.70094307 3.77708475 33.48389698 0 33 C1.08248691 31.29113021 2.16603294 29.58293129 3.25 27.875 C4.15492188 26.44800781 4.15492188 26.44800781 5.078125 24.9921875 C7.01877283 21.97077238 8.99999421 18.98230952 11 16 C10.66677734 15.55084229 10.33355469 15.10168457 9.99023438 14.63891602 C8.49103019 12.61525246 6.99547356 10.58892179 5.5 8.5625 C4.97535156 7.85544922 4.45070312 7.14839844 3.91015625 6.41992188 C3.41386719 5.74638672 2.91757813 5.07285156 2.40625 4.37890625 C1.94541016 3.7557251 1.48457031 3.13254395 1.00976562 2.49047852 C0 1 0 1 0 0 Z " fill="#333E51" transform="translate(234,12)"/>
</svg>
